<?xml version="1.0" encoding="utf-8"?>
<!-- Generator: Adobe Illustrator 23.0.2, SVG Export Plug-In . SVG Version: 6.00 Build 0)  -->
<svg version="1.1" id="Layer_1" xmlns="http://www.w3.org/2000/svg" xmlns:xlink="http://www.w3.org/1999/xlink" x="0px" y="0px"
	 viewBox="0 0 131.2 79.6" style="enable-background:new 0 0 131.2 79.6;" xml:space="preserve">
<style type="text/css">
	.st0{fill:#1ACFE2;}
</style>
<path class="st0" d="M88.3,59.1c12-7.3,22.3-16.9,30.8-28.8c4.6-6.3,8.3-13,11.1-20.3c0.7-2,1-3.7,1-5.2c0-3.2-1.3-4.8-3.8-4.8
	c-1.9,0-4.2,1.2-7.1,3.6c-5.5,5-10.4,10.7-14.5,17.2c-8.3,11.9-15.2,23.7-20.6,35.5c-6.5,4-13.4,7.2-20.7,9.6
	c-0.1,0-0.1,0.1-0.2,0.1c-0.4,0.1-1,0.3-1.8,0.6c-11.4,4.2-20.6,6.3-27.8,6.3c-5,0-7.6-1.9-7.6-5.6c0-1.7-0.7-2.5-2-2.5
	c-0.5,0-0.9-0.1-1.2-0.4c-2.1-1.4-4.3-2.1-6.7-2.1c-4.4,0-9.1,1.4-13.8,4.2c-2.2,1.3-3.3,3.3-3.3,6c0.3,3.6,2.2,5.4,5.7,5.4
	c1.2,0,2.9-0.3,4.9-0.9c4.9-1.5,9.2-3.7,12.8-6.5c0.4,1.6,1.6,3.2,3.6,4.6c2.5,1.4,5.1,2.1,7.8,2.1c1.2,0,2.4-0.1,3.6-0.4
	c9.2-1.5,18.1-3.8,26.9-6.9c0.1,0,0.1-0.1,0.2-0.1c6.5-2.2,12-4.6,16.6-7.2c-1.2,2.4-1.8,4.9-1.8,7.5c0,3.1,1,5.4,2.9,6.8
	c2.1,1.5,4.1,2.4,6.2,2.5c2,0.1,3.5,0.2,4.4,0.2c1.9,0,3.6-0.1,5.3-0.4c9.9-1.8,19.4-5,28.4-9.7c0.7-0.3,1-0.8,1-1.5
	c0-0.7-0.2-1.3-0.7-1.7c-0.5-0.4-0.9-0.6-1.3-0.6c-0.3,0-0.7,0.1-1,0.3c-6.8,3.5-13.9,6.2-21.4,8c-4,1.1-7.7,1.6-11.1,1.6
	c-2.1,0-4-0.3-5.8-0.9c-1.9-0.7-2.8-2.2-2.8-4.5c0-2.4,1.1-5.6,3.2-9.6L88.3,59.1z M104.7,29.5c8.8-13.5,15.9-21.8,21.1-24.7
	c0.3-0.1,0.6-0.2,0.9-0.2c0.3,0,0.4,0.1,0.4,0.4c0,0.5-0.1,1.1-0.3,1.8c-0.5,2.3-1.3,4.4-2.3,6.4c-8.1,16.6-19.1,29.5-32.9,38.9
	C95.4,44.4,99.8,36.9,104.7,29.5z M11.3,72.4c-1.7,0.7-3.1,1-4.3,1c-1.1,0-1.9-0.3-2.3-0.9c-0.3-0.3-0.4-0.7-0.4-1
	c0-1,1.6-2.2,4.7-3.4c3.1-1.3,5.6-1.9,7.3-1.9c1.9,0,3.4,0.4,4.5,1.1C17.8,69.4,14.7,71.1,11.3,72.4z"/>
</svg>
