<?xml version="1.0" encoding="utf-8"?>
<!-- Generator: Adobe Illustrator 23.0.2, SVG Export Plug-In . SVG Version: 6.00 Build 0)  -->
<svg version="1.1" id="Layer_1" xmlns="http://www.w3.org/2000/svg" xmlns:xlink="http://www.w3.org/1999/xlink" x="0px" y="0px"
	 viewBox="0 0 46.5 33.6" style="enable-background:new 0 0 46.5 33.6;" xml:space="preserve">
<style type="text/css">
	.st0{opacity:0.68;}
	.st1{fill:#FFFFFF;}
</style>
<g class="st0">
	<path class="st1" d="M40.3,4.6c0.8,0,1.5,0.5,2,1.2c0.7,1.1,0.4,2.4-0.5,3L29,16.4l-1.4,0.9l1.4,0.9l12.7,7.7
		c0.9,0.6,1.1,1.9,0.5,3c-0.4,0.7-1.2,1.2-2,1.2c-0.3,0-0.6-0.1-0.9-0.2l-15.6-9.5L23.2,20l-0.5,0.3L7.1,29.8
		C6.8,29.9,6.5,30,6.2,30c-0.8,0-1.5-0.5-2-1.2c-0.7-1.1-0.4-2.4,0.5-3l12.7-7.7l1.4-0.9l-1.4-0.9L4.7,8.7c-0.9-0.6-1.1-1.9-0.5-3
		c0.4-0.7,1.2-1.2,2-1.2c0.3,0,0.6,0.1,0.9,0.2l15.6,9.5l0.5,0.3l0.5-0.3l15.6-9.5C39.6,4.6,39.9,4.6,40.3,4.6"/>
</g>
</svg>
