<?xml version="1.0" encoding="utf-8"?>
<!-- Generator: Adobe Illustrator 23.0.2, SVG Export Plug-In . SVG Version: 6.00 Build 0)  -->
<svg version="1.1" id="Layer_1" xmlns="http://www.w3.org/2000/svg" xmlns:xlink="http://www.w3.org/1999/xlink" x="0px" y="0px"
	 viewBox="0 0 47.6 35.1" style="enable-background:new 0 0 47.6 35.1;" xml:space="preserve">
<style type="text/css">
	.st0{fill:#FFFFFF;stroke:#1D326B;stroke-miterlimit:10;}
</style>
<g>
	<path class="st0" d="M44.1,7.3H3.5C1.9,7.3,0.6,5.8,0.6,4s1.3-3.3,2.9-3.3h40.6C45.7,0.7,47,2.2,47,4S45.7,7.3,44.1,7.3z"/>
	<path class="st0" d="M44.1,20.8H3.5c-1.6,0-2.9-1.5-2.9-3.3s1.3-3.3,2.9-3.3h40.6c1.6,0,2.9,1.5,2.9,3.3S45.7,20.8,44.1,20.8z"/>
	<path class="st0" d="M44.1,34.3H3.5c-1.6,0-2.9-1.5-2.9-3.3s1.3-3.3,2.9-3.3h40.6c1.6,0,2.9,1.5,2.9,3.3
		C47.1,32.8,45.7,34.3,44.1,34.3z"/>
</g>
</svg>
