<?xml version="1.0" encoding="utf-8"?>
<!-- Generator: Adobe Illustrator 23.0.2, SVG Export Plug-In . SVG Version: 6.00 Build 0)  -->
<svg version="1.1" id="Layer_1" xmlns="http://www.w3.org/2000/svg" xmlns:xlink="http://www.w3.org/1999/xlink" x="0px" y="0px"
	 viewBox="0 0 160.9 69.5" style="enable-background:new 0 0 160.9 69.5;" xml:space="preserve">
<style type="text/css">
	.st0{fill:#3D2A9E;}
	.st1{fill:#DEDB4C;}
	.st2{font-family:'FuturaBT-ExtraBlack';}
	.st3{font-size:13.9956px;}
	.st4{fill:none;stroke:#000000;stroke-miterlimit:10;}
	.st5{fill:#961C1B;stroke:#000000;stroke-miterlimit:10;}
	.st6{fill:#FFFFFF;stroke:#000000;stroke-miterlimit:10;}
	.st7{fill:#961C1B;}
</style>
<g id="Logo">
	<path class="st0" d="M107.3,67.4H81.2L21.7,11l114.5,38.7c0,0,14.4,6.8,17.7,10.1c3.3,3.3,7,9.7,7,9.7h-23L33.3,16.9L107.3,67.4z"
		/>
	<g>
		<text transform="matrix(0.8551 0 0 1 69.4106 58.481)" class="st1 st2 st3">COURIER</text>
		<text transform="matrix(0.8551 0 0 1 69.4106 58.481)" class="st4 st2 st3">COURIER</text>
	</g>
	<path class="st5" d="M27.6,0.5l-3.8,8.3H13c0,0-1.6-0.3-1.6,1.6s0.6,1.9,1.3,1.9c0.6,0,12.1,0,12.1,0s5.1,1.9,5.1,7.6s0,7,0,7
		S29.2,32,25.4,32S1.3,32,1.3,32l-0.6-0.6l3.8-7H19c0,0,1.3,0,1.3-1.9s-2.5-1.9-5.1-1.9s-9.5,0-9.5,0s-3.2-1.3-4.4-5.1S1.3,4,1.3,4
		s0.8-3.5,4.6-3.5S27.6,0.5,27.6,0.5z"/>
	<path class="st5" d="M56,0.5H37.7c0,0-6.6,2.1-6.6,8.9s0,12.7,0,12.7s0.9,8.8,8.5,10.5s16.4,0,16.4,0s4.1-2.3,3.8-10.5
		s-6-8.6-6-8.6H43.2c0,0-3.9,5.6-1.6,7h9v4.7c0,0-10.1,2.2-10.1-8c0-3.9,1-7.6,3.9-7.6s9.8,0,9.8,0s1,0.1,2.2-2.9
		C57.7,3.7,58,0.5,56,0.5z"/>
	<path class="st5" d="M81.2,21.2L81,11.7l-1.3-6.8c0,0-12.2-0.2-14-0.9c0,0-0.6-0.3-0.6-1s0.6-1,0.6-1h14.2c0,0,0.5-1.2,2.6-1.2
		S85.1,2,85.1,2l9.3,0.8c0,0,2.8,0,2.8,2s-3.1,1.4-3.1,1.4l-8.3-0.9c0,0-1,0.6-0.8,1.8s4.4,3.2,4,4.5s-1.8,1.8-0.7,2.9
		s5.2-0.7,8.6,2.7L81.2,21.2z"/>
	<path class="st6" d="M82.3,19.9c0,0-4.7-1.4-5.6,1.3s1.8,5.6,4.4,5.9s2.6,0.2,2.6,0.2s-24.2-1.5-34.6-3.1c-2.2-0.3-2.8,0.9-1.4,1.9
		s38.4,7.7,48,8.9c0,0,20.1,11.1,34.2,13.4c14.1,2.2,11-9.4,10.1-11.2s-3.2-6.8-6.9-10.1l3.6-1.7c0,0,0.7-1,0.3-1.8
		s-1.5-0.5-2.5,0.1s-3.4,1.8-3.4,1.8s-2.7-4-36.5-9.8l-2.4,1.9C92.4,17.5,89.4,16.5,82.3,19.9z"/>
	<path class="st7" d="M83.9,24.3c0,0,14.3,9.3,41.9,17.5c12.2,3.6,13.6-2.5,12.9-3.4c0,0-0.4,4.7-8.9,2.8
		C121.2,39.3,101.8,33.1,83.9,24.3z"/>
	<circle cx="80.4" cy="23.3" r="2.2"/>
	<path d="M136.5,30.8c0,0-0.3,2.4-3.9,2.1s-5.4-2.6-9.8-1.4c-4.4,1.2-1.3,2.6,0.3,3.1c1.6,0.5,11.5,4.2,15.4-0.7l-2.1-3.2"/>
</g>
</svg>
