<?xml version="1.0" encoding="utf-8"?>
<!-- Generator: Adobe Illustrator 23.0.2, SVG Export Plug-In . SVG Version: 6.00 Build 0)  -->
<svg version="1.1" id="Layer_1" xmlns="http://www.w3.org/2000/svg" xmlns:xlink="http://www.w3.org/1999/xlink" x="0px" y="0px"
	 viewBox="0 0 998 488" style="enable-background:new 0 0 998 488;" xml:space="preserve">
<style type="text/css">
	.st0{fill:#FFFFFF;}
	.st1{fill:#BF000A;}
	.st2{font-family:'Cocogoose';}
	.st3{font-size:93.1659px;}
	.st4{fill:#060060;}
</style>
<image style="display:none;overflow:visible;enable-background:new    ;" width="949" height="456" xlink:href="F8308EBA.jpg"  transform="matrix(0.9999 0 0 0.9999 24 3)">
</image>
<ellipse class="st0" cx="499.5" cy="244" rx="493.5" ry="239"/>
<path class="st1" d="M238,217c0,0-3-26-33-26s-73,0-73,0v-30h118v-61H130c0,0-40,2-40,45s0,72,0,72s1,28,15,28s86,0,86,0s11,2,11,11
	s-6,14-12,14s-122,0-122,0l-13,64h139c0,0,44-6,44-54"/>
<path class="st1" d="M434,100H305c0,0-55,22-55,115s12,96,34,119h89c0,0,27-12,27-47s0-83,0-83s-2-18.5-18.5-18.5s-46.5,0-46.5,0
	s-5,13.5-5,31.5s9,24,9,24h23c0,0,12,0,12,12s-8,17-13,17s-71,0-71,0s-9-37-5-57s25-50,25-50h111L434,100z"/>
<text transform="matrix(0.6735 0 0 1 412.9995 236.1934)" class="st1 st2 st3">CARGO</text>
<rect x="416" y="245" class="st1" width="223" height="11"/>
<rect x="416" y="262" class="st1" width="223" height="11"/>
<g>
	<g>
		<path class="st1" d="M701,203c2,5,3,8,7,10s0,7,5,9s6,12,6,12s0.4,0.7,0.4,0.8c12.1-11.4,26.6-22.7,43-33
			c19.9-12.5,40-21.8,58.4-27.8c0-4.1,0.4-7.5,1.2-9c2-4,16-14,20-14s14,0,15-2s4-4,9-4s8,6,9,4s-7-7-12-7s3-12,7-17s-3-8-6-8
			s-5-7-9-3s-3,1-10-1s-3,4-6,3s-3,1-7,1s-6,1-11,1s-6-4-5-6s2-7,0-6s-9,2-8-3s-4-8-9-8s-7-6-7-9s-7-7-13-9s-9,4-6,5s1.8,1.1,3,4
			c2,5-2,7-2,11c0,8.1-16,21-26,25s-19,4-21,9s-7,2-6,7s-3,3-3,9c0,10-4,10-7,15s-11-1-12-6s-6-1-7-4s-3-1-3-1c-8,4-6,1-7-2s2-5,4-5
			s1-3-1-7s-8,5-12,9s-7,5-3,12s-3,6,3,9s7,10,1,11s2,5,10,8S699,198,701,203z"/>
		<path class="st1" d="M895,358c-3-1-6-10-3-13s0-5-2-7s4-11,6-13s1-6,0-8s0-3,0-3c7-7-2-10,4-17s-7-17-10-24s-8-7-12-5s-10,0-12-1
			c-1.5-0.7-2.4-9.9-1.6-16.4c-13,13-29.2,26-47.8,37.6c-18.8,11.7-37.7,20.7-55.1,26.7l0.6,1.1c0,0,4,14,9,15s9,1,12,8s17,10,20,12
			s6,8,18,9s25,13,28,13s6,4,6,4c3.1,12.3,5,4,12,11s10,5,14,3s-1-7,3-9s4-3,2-5s11-14,14-16S898,359,895,358z"/>
	</g>
</g>
<path class="st4" d="M710.2,217.9c0,0-77.2,72.1-86.2,120.1s23,33,23,33s29.3-6.9,107.1-70S900,149,909,133l9,34l13-72l-57,34l21-2
	c0,0-82.3,111.6-146.6,163C692,335,645,370,642,336c0,0-3-42,69.5-114.9L710.2,217.9z"/>
</svg>
