<?xml version="1.0" encoding="utf-8"?>
<!-- Generator: Adobe Illustrator 23.0.2, SVG Export Plug-In . SVG Version: 6.00 Build 0)  -->
<svg version="1.1" id="Layer_1" xmlns="http://www.w3.org/2000/svg" xmlns:xlink="http://www.w3.org/1999/xlink" x="0px" y="0px"
	 viewBox="0 0 557.8 160.3" style="enable-background:new 0 0 557.8 160.3;" xml:space="preserve">
<style type="text/css">
	.st0{enable-background:new    ;}
	.st1{fill:none;stroke:#FFFFFF;stroke-width:5;stroke-miterlimit:10;}
</style>
<g>
	<g class="st0">
		<path class="st1" d="M4.3,151.8V4.4h63.3c22.3,0,38.6,4.3,48.9,12.9c10.3,8.6,15.5,22.2,15.5,40.9c0,17.4-4.6,30.1-13.9,38.1
			c-9.3,8-24,12-44.1,12H57.3v43.5H4.3z M57.5,45.4V70h8.3c5,0,8.9-1.1,11.6-3.2c2.7-2.1,4-5.1,4-9c0-3.9-1.4-6.9-4.1-9.1
			c-2.8-2.2-6.6-3.3-11.5-3.3H57.5z"/>
		<path class="st1" d="M150.2,151.8V4.4h98.5v40h-46.6v14.2h42.3v37.7h-42.3v15.5H250v40H150.2z"/>
		<path class="st1" d="M271.4,151.8V4.4h66.6c19.3,0,34.1,4.3,44.3,12.8c10.2,8.5,15.3,20.8,15.3,36.8c0,10.5-2.6,19.1-7.7,25.9
			c-5.1,6.8-12.1,10.7-20.8,11.9l39.4,60h-59.4l-25.8-48.6v48.6H271.4z M323.4,42.4v28.8h8.3c5,0,8.9-1.2,11.6-3.7
			c2.7-2.4,4.1-6,4.1-10.5c0-4.7-1.4-8.3-4.1-10.8s-6.6-3.8-11.6-3.8H323.4z"/>
		<path class="st1" d="M417.4,84.4V4.4h52.9v80.3c0,9.3,1.1,15.8,3.3,19.3c2.2,3.5,6,5.3,11.4,5.3c5.3,0,9.1-1.8,11.4-5.4
			c2.3-3.6,3.4-10,3.4-19.1V4.4h52.9v79.9c0,10.5-0.7,19.1-2.1,25.9c-1.4,6.8-3.6,12.4-6.6,17c-5.9,9.2-14,16.2-24.2,21.1
			c-10.2,4.9-21.8,7.3-34.9,7.3c-13.2,0-24.8-2.5-35-7.3c-10.2-4.9-18.3-11.9-24.2-21.1c-3-4.5-5.1-10.1-6.4-16.8
			C418.1,103.7,417.4,95,417.4,84.4z"/>
	</g>
</g>
</svg>
