<?xml version="1.0" encoding="utf-8"?>
<!-- Generator: Adobe Illustrator 23.0.2, SVG Export Plug-In . SVG Version: 6.00 Build 0)  -->
<svg version="1.1" id="Layer_1" xmlns="http://www.w3.org/2000/svg" xmlns:xlink="http://www.w3.org/1999/xlink" x="0px" y="0px"
	 viewBox="0 0 22.2 22.2" style="enable-background:new 0 0 22.2 22.2;" xml:space="preserve">
<style type="text/css">
	.st0{fill:none;stroke:#FF184F;stroke-miterlimit:10;}
</style>
<path class="st0" d="M5.5,1c0,0,2.3,3.4,2.6,4S8.4,6,8,6.4S6,7.9,5.9,8.5c-0.1,0.6,0.4,2.7,2.3,4.6s4.5,3.8,5.5,3.2s2-2.4,2.4-2.4
	s1.3-0.1,3.4,1.4s2.4,2,2.3,2.6C21.6,18.5,21,19.8,19,21s-5.1,0.4-6.8-0.3c-1.7-0.7-5.1-2.9-7.8-6.1s-3.8-6-3.9-8.9s0.8-3.6,2-4.4
	S4.9,0.1,5.5,1z"/>
</svg>
